# xmcd CD database file
#
# Track frame offsets:
#	150
#	17983
#	37260
#	54068
#	69671
#	82702
#	95416
#	111084
#	119062
#	132677
#	142589
#	156026
#	181876
#	202180
#	211459
#	226545
#	236334
#	265330
#	277244
#
# Disc length: 3932 seconds
#
# Revision: 2
# Processed by: cddbd v1.4b41PL1 Copyright (c) Steve Scherf et al.
# Submitted via: Feurio! 1.52 - http://www.feurio.com
#
DISCID=0f0f5a13
DTITLE=Jerry Williams - Greatest Hits
DYEAR=1900
DGENRE=
TTITLE0=I can  jive
TTITLE1=Did I Tell You
TTITLE2=Who's gonna follow you home
TTITLE3=It started with a love affair
TTITLE4=Sista skeppet tillbaka
TTITLE5=If you want my love
TTITLE6=Cotton Jenny
TTITLE7=Feelin' blue
TTITLE8=Git it
TTITLE9=Swett little rockn'roller
TTITLE10=Vintersaga
TTITLE11=Dream on
TTITLE12=Darlin Nelly Grey
TTITLE13=Cruisin' on a Saturday night
TTITLE14=Number one
TTITLE15=Working class hero
TTITLE16=Meningen med allt
TTITLE17=Keep onrollin'
TTITLE18=Play that song on the juke-box
EXTD=
EXTT0=
EXTT1=
EXTT2=
EXTT3=
EXTT4=
EXTT5=
EXTT6=
EXTT7=
EXTT8=
EXTT9=
EXTT10=
EXTT11=
EXTT12=
EXTT13=
EXTT14=
EXTT15=
EXTT16=
EXTT17=
EXTT18=
PLAYORDER=
